inDegrees=yes
name=ik_lifting_orientations
DataType=double
version=3
OpenSimVersion=4.5-2024-01-10-34fd6af
endheader
time	pelvis_tilt	pelvis_list	pelvis_rotation	pelvis_tx	pelvis_ty	pelvis_tz	hip_flexion_r	hip_adduction_r	hip_rotation_r	knee_angle_r	knee_angle_r_beta	ankle_angle_r	subtalar_angle_r	mtp_angle_r	hip_flexion_l	hip_adduction_l	hip_rotation_l	knee_angle_l	knee_angle_l_beta	ankle_angle_l	subtalar_angle_l	mtp_angle_l	lumbar_extension	lumbar_bending	lumbar_rotation	arm_flex_r	arm_add_r	arm_rot_r	elbow_flex_r	pro_sup_r	wrist_flex_r	wrist_dev_r	arm_flex_l	arm_add_l	arm_rot_l	elbow_flex_l	pro_sup_l	wrist_flex_l	wrist_dev_l
0.02	-0.004165417339414808	-0.002858870659234767	-90.84276849862295	0	0.9399999998679526	0	46.00498778616257	-10.44815049741302	0	61.23025163995283	1.068669492941834	-4.666089675843912	0	0	46.00498778616257	-10.44815049741302	0	61.23025163995283	1.068669492941834	-4.666089675843912	0	0	-0.004394260437935321	0.006317443848265475	-0.003984430888755485	-0.229506232064364	-0.0544740791062037	-0.002756726560569078	0.4828383654698589	0.9549283758299313	0	0	0	-9.73100831219018	0	89.12397327380533	0.9549283758299313	0	0
0.03	-0.1776333534066447	-0.2024919899646522	-90.92534993381028	0	0.9399999998679526	0	46.00479854270731	-10.44785620758408	0	61.23006949436319	1.068666313901577	-4.666375599520674	0	0	46.00479854270731	-10.44785620758408	0	61.23006949436319	1.068666313901577	-4.666375599520674	0	0	-0.1161778177076277	0.05832272954592506	-0.1199886304120974	-0.5979582538616018	-0.2717755020604616	0.06490611062508132	0.7579301716683231	0.9548031921371518	0	0	0	-9.731517992825925	0	89.12408809001208	0.9548031921371518	0	0
0.04	-0.3587978883015657	-0.3848596194111935	-91.14003095410168	0	0.9399999998679526	0	46.00460327382667	-10.44755340670033	0	61.22988119091261	1.068663027386372	-4.666669596963057	0	0	46.00460327382667	-10.44755340670033	0	61.22988119091261	1.068663027386372	-4.666669596963057	0	0	-0.2177107075259069	0.1181854518498675	-0.05237933936329459	-1.079416412075228	-0.50085507539223	0.1688288996273064	1.145937263330719	0.9546739217159967	0	0	0	-9.732044648751488	0	89.12420665450001	0.9546739217159967	0	0
0.05	-0.6256028671852372	-0.6547161021402457	-91.08096237134539	0	0.9399999998679526	0	46.00438215514703	-10.44721117471342	0	61.22966772943864	1.068659301780825	-4.667001709109943	0	0	46.00438215514703	-10.44721117471342	0	61.22966772943864	1.068659301780825	-4.667001709109943	0	0	-0.3805636126378332	0.2665628999321967	-0.3401833456725345	-1.564134394552195	-0.6806880006479556	0.3934163641533588	1.571807290253226	0.9545274696685325	0	0	0	-9.732641525956918	0	89.12434097766995	0.9545274696685325	0	0
0.06	-0.8884335515231624	-0.9168399509601801	-91.16294368590566	0	0.9399999998679526	0	46.00414303703811	-10.44684245914798	0	61.22943631174726	1.068655262780163	-4.667359212190414	0	0	46.00414303703811	-10.44684245914798	0	61.22943631174726	1.068655262780163	-4.667359212190414	0	0	-0.5164918442244787	0.3878643838940795	-0.5003670143618437	-2.065172180817664	-0.7430474445810068	0.6881874437104576	1.950520812890167	0.954368933702026	0	0	0	-9.73328819294643	0	89.12448638400517	0.954368933702026	0	0
0.07000000000000001	-1.167377147715735	-1.195567864409755	-91.05310340078202	0	0.9399999998679526	0	46.00383652024345	-10.44636993878334	0	61.22913974969627	1.068650086795937	-4.667817267248465	0	0	46.00383652024345	-10.44636993878334	0	61.22913974969627	1.068650086795937	-4.667817267248465	0	0	-0.6627701657666965	0.5240911275427507	-0.930402914017923	-2.759245929686271	-0.7861356976427332	1.097723924522343	2.462989431016045	0.9541657219684606	0	0	0	-9.734117041729926	0	89.12467276614949	0.9541657219684606	0	0
0.08	-1.468724357561597	-1.502460813047555	-90.8436955804162	0	0.9399999998679526	0	46.0036222937454	-10.4460452446407	0	61.22892980855269	1.068646422631746	-4.668130931207497	0	0	46.0036222937454	-10.4460452446407	0	61.22892980855269	1.068646422631746	-4.668130931207497	0	0	-0.8556359156885343	0.6694150304206429	-1.375479879664974	-3.383105136909826	-0.722054156874906	1.41703530065935	2.958041906201212	0.954022977675789	0	0	0	-9.734701696775138	0	89.12480368870301	0.954022977675789	0	0
0.09	-1.908554177904228	-1.954534999790466	-90.96794462711486	0	0.9399999998679526	0	46.00339624972104	-10.44570205857897	0	61.22870860464273	1.068642561895199	-4.668462555063739	0	0	46.00339624972104	-10.44570205857897	0	61.22870860464273	1.068642561895199	-4.668462555063739	0	0	-1.195577173405263	0.9651633785464974	-1.477727991163449	-3.932109628586513	-0.6958477186386982	1.698970820347674	3.385559922209009	0.9538724387866229	0	0	0	-9.735318007155488	0	89.12494176031734	0.9538724387866229	0	0
0.1	-2.359913373247719	-2.395350827035204	-91.10313377659247	0	0.9399999998679526	0	46.00317529720994	-10.44537125805163	0	61.22849002979576	1.068638747044457	-4.668781337689475	0	0	46.00317529720994	-10.44537125805163	0	61.22849002979576	1.068638747044457	-4.668781337689475	0	0	-1.54684104026304	1.29493700008809	-1.427491097800048	-4.355191556997339	-0.5833613950009456	1.896447415419882	3.683002809483815	0.9537246629355811	0	0	0	-9.735925148828693	0	89.12507729777236	0.9537246629355811	0	0
0.11	-2.930058717416096	-2.962588384987384	-91.34492445493801	0	0.9399999998679526	0	46.00295263524495	-10.44503959190806	0	61.22826898503019	1.068634889085504	-4.669100596718163	0	0	46.00295263524495	-10.44503959190806	0	61.22826898503019	1.068634889085504	-4.669100596718163	0	0	-2.086707032995462	1.793759764319147	-1.251079522171479	-4.733388409509513	-0.5357194699744243	2.066399238744558	4.001795195088398	0.9535755299028008	0	0	0	-9.73653858267102	0	89.12521408002814	0.9535755299028008	0	0
0.12	-3.547887605994153	-3.58014881425157	-91.54255162758973	0	0.9399999998679526	0	46.00226630130992	-10.4440231607027	0	61.22759188527315	1.068623071465379	-4.670074721921787	0	0	46.00226630130992	-10.4440231607027	0	61.22759188527315	1.068623071465379	-4.670074721921787	0	0	-2.754679536146365	2.442116852169616	-1.017219859131996	-5.031771726849042	-0.5302487519774566	2.065369366341723	4.301145724694981	0.9531166040458677	0	0	0	-9.738422302607807	0	89.12563499886249	0.9531166040458677	0	0
0.13	-4.281326699217177	-4.266288536692315	-91.94990404842359	0	0.9399999998679526	0	46.00116056324003	-10.44239640716194	0	61.22650060063858	1.068604024955429	-4.671629528062549	0	0	46.00116056324003	-10.44239640716194	0	61.22650060063858	1.068604024955429	-4.671629528062549	0	0	-3.650175697488646	3.319137550158104	-0.272228037979097	-5.059589068716501	-0.5780033572727651	1.71709192788897	4.468619975730969	0.9523767983087118	0	0	0	-9.741459534691272	0	89.1263135358805	0.9523767983087118	0	0
0.14	-4.942718802484317	-4.910502079092548	-92.47741052529828	0	0.9399999998679526	0	46.00030589609474	-10.44114156528905	0	61.22565518750039	1.068589269712628	-4.672828565997325	0	0	46.00030589609474	-10.44114156528905	0	61.22565518750039	1.068589269712628	-4.672828565997325	0	0	-4.506706329419266	4.098877522866821	0.5909469317061017	-5.164263861609938	-0.6000309943828797	1.396837170964296	4.679013772759519	0.9518044269398692	0	0	0	-9.743811505212379	0	89.12683850504736	0.9518044269398692	0	0
